<svg xmlns="http://www.w3.org/2000/svg" width="512" height="512" style="overflow: visible;" viewBox="0 0 512 512" data-svgdocument="" id="_eg90l3bab_1" class="fl-svgdocument" x="0" y="0"><g transform="matrix(1.296602725982666, 0, 0, 1.296602725982666, -79.5565185546875, -15.250099182128906)" data-uid="o_emf3a4mk3_4"><path id="_eg90l3bab_209" transform="matrix(3.3147566318511963, 0, 0, 3.3147566318511963, 99.11002349853516, 48.14995193481445)" fill="#5d88f3" data-type="circle" data-cx="50" data-cy="50" data-r="50" d="M50,50m-50,0a50,50 0 1, 0 100,0a50,50 0 1, 0 -100,0" data-uid="o_emf3a4mk3_5"></path><path id="_eg90l3bab_128" d="M8,4 C5.789,4 4,2.211 4,0 C4,2.211 2.211,4 0,4 C2.211,4 4,5.789 4,8 C4,5.789 5.789,4 8,4 L8,4 Z" transform="matrix(6.422015190124512, 0, 0, 6.422015190124512, 77.3747787475586, 26.17319107055664)" stroke="#1e252a" stroke-width="2" stroke-linecap="round" fill="#ffffff" stroke-linejoin="round" data-uid="o_emf3a4mk3_6"></path><path id="_eg90l3bab_129" d="M28.1744,44 L50.0004,44" transform="matrix(6.422015190124512, 0, 0, 6.422015190124512, 77.3747787475586, 26.17319107055664)" stroke="#1e252a" stroke-width="2" stroke-linecap="round" fill="#1e252a" data-uid="o_emf3a4mk3_7"></path><path id="_eg90l3bab_130" d="M8,44 L21.943,44" stroke="#1e252a" stroke-width="2" transform="matrix(6.422015190124512, 0, 0, 6.422015190124512, 77.3747787475586, 26.17319107055664)" stroke-linecap="round" fill="#1e252a" data-uid="o_emf3a4mk3_8"></path><path id="_eg90l3bab_131" d="M7.7371,32 L4.0001,32" stroke="#1e252a" stroke-width="2" transform="matrix(6.422015190124512, 0, 0, 6.422015190124512, 77.3747787475586, 26.17319107055664)" stroke-linecap="round" fill="#1e252a" data-uid="o_emf3a4mk3_9"></path><path id="_eg90l3bab_132" d="M34,32 L15,32" stroke="#1e252a" stroke-width="2" stroke-linecap="round" transform="matrix(6.422015190124512, 0, 0, 6.422015190124512, 77.3747787475586, 26.17319107055664)" fill="#1e252a" data-uid="o_emf3a4mk3_10"></path><path id="_eg90l3bab_133" d="M42,38 L21,38" stroke="#1e252a" stroke-width="2" stroke-linecap="round" transform="matrix(6.422015190124512, 0, 0, 6.422015190124512, 77.3747787475586, 26.17319107055664)" fill="#1e252a" data-uid="o_emf3a4mk3_11"></path><path id="_eg90l3bab_134" d="M30,49 L13,49" stroke="#1e252a" stroke-width="2" stroke-linecap="round" transform="matrix(6.422015190124512, 0, 0, 6.422015190124512, 77.3747787475586, 26.17319107055664)" fill="#1e252a" data-uid="o_emf3a4mk3_12"></path><path id="_eg90l3bab_135" d="M33,26 L23,26" stroke="#1e252a" stroke-width="2" stroke-linecap="round" transform="matrix(6.422015190124512, 0, 0, 6.422015190124512, 77.3747787475586, 26.17319107055664)" fill="#1e252a" data-uid="o_emf3a4mk3_13"></path><path id="_eg90l3bab_136" d="M14,26 L4,26" stroke="#1e252a" stroke-width="2" stroke-linecap="round" transform="matrix(6.422015190124512, 0, 0, 6.422015190124512, 77.3747787475586, 26.17319107055664)" fill="#1e252a" data-uid="o_emf3a4mk3_14"></path><path id="_eg90l3bab_137" d="M32,15 L22,15" stroke="#1e252a" stroke-width="2" stroke-linecap="round" transform="matrix(6.422015190124512, 0, 0, 6.422015190124512, 77.3747787475586, 26.17319107055664)" fill="#1e252a" data-uid="o_emf3a4mk3_15"></path><path id="_eg90l3bab_138" d="M54,32 L42,32" stroke="#1e252a" stroke-width="2" stroke-linecap="round" transform="matrix(6.422015190124512, 0, 0, 6.422015190124512, 77.3747787475586, 26.17319107055664)" fill="#1e252a" data-uid="o_emf3a4mk3_16"></path><path id="_eg90l3bab_139" d="M25.6229,9 L12.9999,9" stroke="#1e252a" stroke-width="2" stroke-linecap="round" transform="matrix(6.422015190124512, 0, 0, 6.422015190124512, 77.3747787475586, 26.17319107055664)" fill="#1e252a" data-uid="o_emf3a4mk3_17"></path><path id="_eg90l3bab_140" d="M38,9 L32,9" stroke="#1e252a" stroke-width="2" stroke-linecap="round" transform="matrix(6.422015190124512, 0, 0, 6.422015190124512, 77.3747787475586, 26.17319107055664)" fill="#1e252a" data-uid="o_emf3a4mk3_18"></path><path id="_eg90l3bab_141" d="M30.2629,21 L52.9999,21" stroke="#1e252a" stroke-width="2" stroke-linecap="round" transform="matrix(6.422015190124512, 0, 0, 6.422015190124512, 77.3747787475586, 26.17319107055664)" fill="#1e252a" data-uid="o_emf3a4mk3_19"></path><path id="_eg90l3bab_142" d="M5,21 L23.661,21" transform="matrix(6.422015190124512, 0, 0, 6.422015190124512, 77.3747787475586, 26.17319107055664)" fill="#1e252a" stroke="#1e252a" stroke-width="2" stroke-linecap="round" data-uid="o_emf3a4mk3_20"></path><path id="_eg90l3bab_152" d="M40,68.5c-15.7,0-28.5-12.8-28.5-28.5S24.3,11.5,40,11.5S68.5,24.3,68.5,40S55.7,68.5,40,68.5z M40,13.5   c-14.6,0-26.5,11.9-26.5,26.5S25.4,66.5,40,66.5S66.5,54.6,66.5,40S54.6,13.5,40,13.5z" transform="matrix(6.040085792541504, 0, 0, 6.040085792541504, 20.857223510742188, -27.715694427490234)" fill="#1e252a" data-uid="o_emf3a4mk3_21"></path><path id="_eg90l3bab_123" d="M53,52 C53,52.552 52.552,53 52,53 C51.448,53 51,52.552 51,52 C51,51.448 51.448,51 52,51 C52.552,51 53,51.448 53,52" transform="matrix(6.422015190124512, 0, 0, 6.422015190124512, 77.3747787475586, 26.17319107055664)" stroke="none" fill="#1e252a" stroke-width="1" data-uid="o_emf3a4mk3_22"></path><path id="_eg90l3bab_124" d="M57,9 C57,9.552 56.552,10 56,10 C55.448,10 55,9.552 55,9 C55,8.448 55.448,8 56,8 C56.552,8 57,8.448 57,9" stroke="none" transform="matrix(6.422015190124512, 0, 0, 6.422015190124512, 77.3747787475586, 26.17319107055664)" fill="#1e252a" stroke-width="1" data-uid="o_emf3a4mk3_23"></path><path id="_eg90l3bab_125" d="M7,56 C7,56.552 6.552,57 6,57 C5.448,57 5,56.552 5,56 C5,55.448 5.448,55 6,55 C6.552,55 7,55.448 7,56" stroke="none" transform="matrix(6.422015190124512, 0, 0, 6.422015190124512, 77.3747787475586, 26.17319107055664)" fill="#1e252a" stroke-width="1" data-uid="o_emf3a4mk3_24"></path><path id="_eg90l3bab_126" d="M50,8 C50,11.314 47.314,14 44,14 C40.686,14 38,11.314 38,8 C38,4.686 40.686,2 44,2 C47.314,2 50,4.686 50,8 L50,8 Z" transform="matrix(6.422015190124512, 0, 0, 6.422015190124512, 77.3747787475586, 26.17319107055664)" stroke="#1e252a" stroke-width="2" fill="#81fc9e" data-uid="o_emf3a4mk3_25"></path><path id="_eg90l3bab_127" d="M43,53 C43,55.209 41.209,57 39,57 C36.791,57 35,55.209 35,53 C35,50.791 36.791,49 39,49 C41.209,49 43,50.791 43,53 L43,53 Z" stroke="#1e252a" stroke-width="2" transform="matrix(6.422015190124512, 0, 0, 6.422015190124512, 77.3747787475586, 26.17319107055664)" fill="#f0c159" data-uid="o_emf3a4mk3_26"></path></g></svg>